<mxfile host="app.diagrams.net" agent="Mozilla/5.0 (Windows NT 10.0; Win64; x64) AppleWebKit/537.36 (KHTML, like Gecko) Chrome/138.0.0.0 Safari/537.36 OPR/122.0.0.0" version="28.2.5">
  <diagram name="Page-1" id="ydRGSnWMA-bkz1IluEa-">
    <mxGraphModel dx="1550" dy="674" grid="1" gridSize="10" guides="1" tooltips="1" connect="1" arrows="1" fold="1" page="1" pageScale="1" pageWidth="850" pageHeight="1100" math="0" shadow="0">
      <root>
        <mxCell id="0" />
        <mxCell id="1" parent="0" />
        <mxCell id="2gHSJpkS-5yH1zQ-Cqjw-4" value="" style="edgeStyle=orthogonalEdgeStyle;rounded=0;orthogonalLoop=1;jettySize=auto;html=1;" edge="1" parent="1" source="2gHSJpkS-5yH1zQ-Cqjw-1" target="2gHSJpkS-5yH1zQ-Cqjw-3">
          <mxGeometry relative="1" as="geometry" />
        </mxCell>
        <mxCell id="2gHSJpkS-5yH1zQ-Cqjw-1" value="" style="ellipse;whiteSpace=wrap;html=1;" vertex="1" parent="1">
          <mxGeometry x="170" y="20" width="170" height="60" as="geometry" />
        </mxCell>
        <mxCell id="2gHSJpkS-5yH1zQ-Cqjw-2" value="Start" style="text;html=1;align=center;verticalAlign=middle;whiteSpace=wrap;rounded=0;" vertex="1" parent="1">
          <mxGeometry x="225" y="35" width="60" height="30" as="geometry" />
        </mxCell>
        <mxCell id="2gHSJpkS-5yH1zQ-Cqjw-8" value="" style="edgeStyle=orthogonalEdgeStyle;rounded=0;orthogonalLoop=1;jettySize=auto;html=1;" edge="1" parent="1" source="2gHSJpkS-5yH1zQ-Cqjw-3" target="2gHSJpkS-5yH1zQ-Cqjw-7">
          <mxGeometry relative="1" as="geometry" />
        </mxCell>
        <mxCell id="2gHSJpkS-5yH1zQ-Cqjw-3" value="" style="whiteSpace=wrap;html=1;aspect=fixed;" vertex="1" parent="1">
          <mxGeometry x="220" y="150" width="130" height="130" as="geometry" />
        </mxCell>
        <mxCell id="2gHSJpkS-5yH1zQ-Cqjw-5" value="Connect Database" style="text;html=1;align=center;verticalAlign=middle;whiteSpace=wrap;rounded=0;" vertex="1" parent="1">
          <mxGeometry x="250" y="200" width="60" height="30" as="geometry" />
        </mxCell>
        <mxCell id="2gHSJpkS-5yH1zQ-Cqjw-11" value="" style="edgeStyle=orthogonalEdgeStyle;rounded=0;orthogonalLoop=1;jettySize=auto;html=1;" edge="1" parent="1" source="2gHSJpkS-5yH1zQ-Cqjw-7" target="2gHSJpkS-5yH1zQ-Cqjw-10">
          <mxGeometry relative="1" as="geometry" />
        </mxCell>
        <mxCell id="2gHSJpkS-5yH1zQ-Cqjw-7" value="" style="rounded=0;whiteSpace=wrap;html=1;" vertex="1" parent="1">
          <mxGeometry x="225" y="380" width="120" height="60" as="geometry" />
        </mxCell>
        <mxCell id="2gHSJpkS-5yH1zQ-Cqjw-9" value="Zoek usernaam in tabel User" style="text;html=1;align=center;verticalAlign=middle;whiteSpace=wrap;rounded=0;" vertex="1" parent="1">
          <mxGeometry x="255" y="395" width="60" height="30" as="geometry" />
        </mxCell>
        <mxCell id="2gHSJpkS-5yH1zQ-Cqjw-15" value="" style="edgeStyle=orthogonalEdgeStyle;rounded=0;orthogonalLoop=1;jettySize=auto;html=1;" edge="1" parent="1" source="2gHSJpkS-5yH1zQ-Cqjw-10" target="2gHSJpkS-5yH1zQ-Cqjw-14">
          <mxGeometry relative="1" as="geometry" />
        </mxCell>
        <mxCell id="2gHSJpkS-5yH1zQ-Cqjw-25" value="" style="edgeStyle=orthogonalEdgeStyle;rounded=0;orthogonalLoop=1;jettySize=auto;html=1;" edge="1" parent="1" source="2gHSJpkS-5yH1zQ-Cqjw-10" target="2gHSJpkS-5yH1zQ-Cqjw-24">
          <mxGeometry relative="1" as="geometry" />
        </mxCell>
        <mxCell id="2gHSJpkS-5yH1zQ-Cqjw-10" value="" style="rhombus;whiteSpace=wrap;html=1;" vertex="1" parent="1">
          <mxGeometry x="235" y="540" width="115" height="80" as="geometry" />
        </mxCell>
        <mxCell id="2gHSJpkS-5yH1zQ-Cqjw-12" value="Gevonden?" style="text;html=1;align=center;verticalAlign=middle;whiteSpace=wrap;rounded=0;" vertex="1" parent="1">
          <mxGeometry x="262.5" y="565" width="60" height="30" as="geometry" />
        </mxCell>
        <mxCell id="2gHSJpkS-5yH1zQ-Cqjw-14" value="" style="whiteSpace=wrap;html=1;" vertex="1" parent="1">
          <mxGeometry x="427.5" y="550" width="120" height="60" as="geometry" />
        </mxCell>
        <mxCell id="2gHSJpkS-5yH1zQ-Cqjw-16" value="Nee" style="text;html=1;align=center;verticalAlign=middle;whiteSpace=wrap;rounded=0;" vertex="1" parent="1">
          <mxGeometry x="350" y="540" width="60" height="30" as="geometry" />
        </mxCell>
        <mxCell id="2gHSJpkS-5yH1zQ-Cqjw-17" value="User not found" style="text;html=1;align=center;verticalAlign=middle;whiteSpace=wrap;rounded=0;" vertex="1" parent="1">
          <mxGeometry x="457.5" y="565" width="60" height="30" as="geometry" />
        </mxCell>
        <mxCell id="2gHSJpkS-5yH1zQ-Cqjw-29" value="" style="edgeStyle=orthogonalEdgeStyle;rounded=0;orthogonalLoop=1;jettySize=auto;html=1;" edge="1" parent="1" source="2gHSJpkS-5yH1zQ-Cqjw-24" target="2gHSJpkS-5yH1zQ-Cqjw-28">
          <mxGeometry relative="1" as="geometry" />
        </mxCell>
        <mxCell id="2gHSJpkS-5yH1zQ-Cqjw-37" value="" style="edgeStyle=orthogonalEdgeStyle;rounded=0;orthogonalLoop=1;jettySize=auto;html=1;" edge="1" parent="1" source="2gHSJpkS-5yH1zQ-Cqjw-24" target="2gHSJpkS-5yH1zQ-Cqjw-36">
          <mxGeometry relative="1" as="geometry" />
        </mxCell>
        <mxCell id="2gHSJpkS-5yH1zQ-Cqjw-24" value="" style="rhombus;whiteSpace=wrap;html=1;" vertex="1" parent="1">
          <mxGeometry x="242.5" y="700" width="97.5" height="80" as="geometry" />
        </mxCell>
        <mxCell id="2gHSJpkS-5yH1zQ-Cqjw-26" value="Is ingevoerd pwd = pwd_db" style="text;html=1;align=center;verticalAlign=middle;whiteSpace=wrap;rounded=0;" vertex="1" parent="1">
          <mxGeometry x="261.25" y="720" width="60" height="30" as="geometry" />
        </mxCell>
        <mxCell id="2gHSJpkS-5yH1zQ-Cqjw-28" value="" style="whiteSpace=wrap;html=1;" vertex="1" parent="1">
          <mxGeometry x="408.75" y="710" width="120" height="60" as="geometry" />
        </mxCell>
        <mxCell id="2gHSJpkS-5yH1zQ-Cqjw-30" value="Wrong pwd" style="text;html=1;align=center;verticalAlign=middle;whiteSpace=wrap;rounded=0;" vertex="1" parent="1">
          <mxGeometry x="438.75" y="725" width="60" height="30" as="geometry" />
        </mxCell>
        <mxCell id="2gHSJpkS-5yH1zQ-Cqjw-31" value="Nee" style="text;html=1;align=center;verticalAlign=middle;whiteSpace=wrap;rounded=0;" vertex="1" parent="1">
          <mxGeometry x="340" y="700" width="60" height="30" as="geometry" />
        </mxCell>
        <mxCell id="2gHSJpkS-5yH1zQ-Cqjw-34" value="ja" style="text;html=1;align=center;verticalAlign=middle;whiteSpace=wrap;rounded=0;" vertex="1" parent="1">
          <mxGeometry x="300" y="800" width="60" height="30" as="geometry" />
        </mxCell>
        <mxCell id="2gHSJpkS-5yH1zQ-Cqjw-42" value="" style="edgeStyle=orthogonalEdgeStyle;rounded=0;orthogonalLoop=1;jettySize=auto;html=1;" edge="1" parent="1" source="2gHSJpkS-5yH1zQ-Cqjw-36" target="2gHSJpkS-5yH1zQ-Cqjw-41">
          <mxGeometry relative="1" as="geometry" />
        </mxCell>
        <mxCell id="2gHSJpkS-5yH1zQ-Cqjw-36" value="" style="whiteSpace=wrap;html=1;" vertex="1" parent="1">
          <mxGeometry x="231.25" y="870" width="120" height="60" as="geometry" />
        </mxCell>
        <mxCell id="2gHSJpkS-5yH1zQ-Cqjw-39" value="Maak inlogsessie" style="text;html=1;align=center;verticalAlign=middle;whiteSpace=wrap;rounded=0;" vertex="1" parent="1">
          <mxGeometry x="261.25" y="885" width="60" height="30" as="geometry" />
        </mxCell>
        <mxCell id="2gHSJpkS-5yH1zQ-Cqjw-41" value="" style="ellipse;whiteSpace=wrap;html=1;" vertex="1" parent="1">
          <mxGeometry x="251.25" y="1000" width="80" height="80" as="geometry" />
        </mxCell>
        <mxCell id="2gHSJpkS-5yH1zQ-Cqjw-43" value="end" style="text;html=1;align=center;verticalAlign=middle;whiteSpace=wrap;rounded=0;" vertex="1" parent="1">
          <mxGeometry x="261.25" y="1025" width="60" height="30" as="geometry" />
        </mxCell>
        <mxCell id="2gHSJpkS-5yH1zQ-Cqjw-44" value="" style="endArrow=classic;html=1;rounded=0;exitX=0.75;exitY=1;exitDx=0;exitDy=0;" edge="1" parent="1" source="2gHSJpkS-5yH1zQ-Cqjw-28" target="2gHSJpkS-5yH1zQ-Cqjw-41">
          <mxGeometry width="50" height="50" relative="1" as="geometry">
            <mxPoint x="630" y="920" as="sourcePoint" />
            <mxPoint x="680" y="870" as="targetPoint" />
          </mxGeometry>
        </mxCell>
        <mxCell id="2gHSJpkS-5yH1zQ-Cqjw-45" value="" style="endArrow=classic;html=1;rounded=0;exitX=0.75;exitY=1;exitDx=0;exitDy=0;" edge="1" parent="1">
          <mxGeometry width="50" height="50" relative="1" as="geometry">
            <mxPoint x="516" y="610" as="sourcePoint" />
            <mxPoint x="333" y="1030" as="targetPoint" />
          </mxGeometry>
        </mxCell>
      </root>
    </mxGraphModel>
  </diagram>
</mxfile>
